<svg width="194" height="225" viewBox="0 0 194 225" fill="none" xmlns="http://www.w3.org/2000/svg">
<path d="M161.299 190.87L194 136.645L188.175 25.09L161.299 190.87Z" fill="url(#paint0_linear_107_9)"/>
<path d="M32.2598 190.87L0 136.614L5.82499 25.0596L32.2598 190.87Z" fill="url(#paint1_linear_107_9)"/>
<path opacity="0.9" d="M97.0072 0L0 136.644V174.734L97.0072 224.474L193.999 174.734V136.644L97.0072 0Z" fill="url(#paint2_linear_107_9)"/>
<path d="M97.0078 224.474L194 174.734V136.644L97.0078 224.474Z" fill="url(#paint3_linear_107_9)"/>
<path d="M97.0073 224.429L0 174.704V136.614L97.0073 224.429Z" fill="url(#paint4_linear_107_9)"/>
<defs>
<linearGradient id="paint0_linear_107_9" x1="181.151" y1="25.09" x2="181.151" y2="136.644" gradientUnits="userSpaceOnUse">
<stop stop-color="#2134E4"/>
<stop offset="1" stop-color="#331DBE"/>
</linearGradient>
<linearGradient id="paint1_linear_107_9" x1="12.8483" y1="25.0596" x2="12.8483" y2="136.614" gradientUnits="userSpaceOnUse">
<stop stop-color="#2134E4"/>
<stop offset="1" stop-color="#331DBE"/>
</linearGradient>
<linearGradient id="paint2_linear_107_9" x1="92.8768" y1="224.38" x2="100.906" y2="10.4161" gradientUnits="userSpaceOnUse">
<stop stop-color="#001AFF"/>
<stop offset="1" stop-color="#0057FF"/>
</linearGradient>
<linearGradient id="paint3_linear_107_9" x1="145.504" y1="136.644" x2="145.504" y2="224.474" gradientUnits="userSpaceOnUse">
<stop stop-color="#0085FF"/>
<stop offset="1" stop-color="#00A3FF"/>
</linearGradient>
<linearGradient id="paint4_linear_107_9" x1="48.5036" y1="136.614" x2="48.5036" y2="224.429" gradientUnits="userSpaceOnUse">
<stop stop-color="#0085FF"/>
<stop offset="1" stop-color="#00A3FF"/>
</linearGradient>
</defs>
</svg>
